<svg width="700" height="366" viewBox="0 0 700 366" xmlns="http://www.w3.org/2000/svg">
  <defs>
    <linearGradient id="bg" x1="0" y1="0" x2="1" y2="1">
      <stop offset="0%" stop-color="#0f2027"/>
      <stop offset="50%" stop-color="#12222b"/>
      <stop offset="100%" stop-color="#0d1117"/>
    </linearGradient>
  </defs>
  <rect x="0" y="0" width="700" height="366" rx="16" fill="url(#bg)" stroke="#233240" stroke-width="1"/>

  <g opacity="0">
    <animate attributeName="opacity" values="1;0;0" keyTimes="0.00000;0.11111;1.00000" calcMode="discrete" dur="540s" begin="0s" repeatCount="indefinite"/>

    <text x="350.0" y="42" text-anchor="middle" font-family="'Segoe UI', Verdana, sans-serif" font-size="26" font-weight="700" fill="#00C9A7">
      Data Analyst
    </text>
    <text x="350.0" y="66" text-anchor="middle" font-family="'Segoe UI', Verdana, sans-serif" font-size="13" fill="#8b98a5">
      Tech Stack &amp; Expertise Level
    </text>

    <text x="30" y="103" font-family="'Segoe UI', Verdana, sans-serif" font-size="15" fill="#e6edf3">Python</text>
    <rect x="190" y="90" width="430" height="14" rx="7" fill="#1c2733"/>
    <rect x="190" y="90" width="344" height="14" rx="7" fill="#00C9A7"/>
    <text x="634" y="103" font-family="'Segoe UI', Verdana, sans-serif" font-size="13" font-weight="600" fill="#00C9A7">80%</text>

    <text x="30" y="149" font-family="'Segoe UI', Verdana, sans-serif" font-size="15" fill="#e6edf3">SQL</text>
    <rect x="190" y="136" width="430" height="14" rx="7" fill="#1c2733"/>
    <rect x="190" y="136" width="387" height="14" rx="7" fill="#FF512F"/>
    <text x="634" y="149" font-family="'Segoe UI', Verdana, sans-serif" font-size="13" font-weight="600" fill="#FF512F">90%</text>

    <text x="30" y="195" font-family="'Segoe UI', Verdana, sans-serif" font-size="15" fill="#e6edf3">Power BI</text>
    <rect x="190" y="182" width="430" height="14" rx="7" fill="#1c2733"/>
    <rect x="190" y="182" width="366" height="14" rx="7" fill="#8E2DE2"/>
    <text x="634" y="195" font-family="'Segoe UI', Verdana, sans-serif" font-size="13" font-weight="600" fill="#8E2DE2">85%</text>

    <text x="30" y="241" font-family="'Segoe UI', Verdana, sans-serif" font-size="15" fill="#e6edf3">Advanced Excel</text>
    <rect x="190" y="228" width="430" height="14" rx="7" fill="#1c2733"/>
    <rect x="190" y="228" width="387" height="14" rx="7" fill="#26D0CE"/>
    <text x="634" y="241" font-family="'Segoe UI', Verdana, sans-serif" font-size="13" font-weight="600" fill="#26D0CE">90%</text>

    <text x="30" y="287" font-family="'Segoe UI', Verdana, sans-serif" font-size="15" fill="#e6edf3">Tableau</text>
    <rect x="190" y="274" width="430" height="14" rx="7" fill="#1c2733"/>
    <rect x="190" y="274" width="301" height="14" rx="7" fill="#38EF7D"/>
    <text x="634" y="287" font-family="'Segoe UI', Verdana, sans-serif" font-size="13" font-weight="600" fill="#38EF7D">70%</text>

    <text x="350.0" y="348" text-anchor="middle" font-family="'Segoe UI', Verdana, sans-serif" font-size="11" fill="#5b6773">
      Role 1 of 9 &#8226; changes every 60s
    </text>
  </g>

  <g opacity="0">
    <animate attributeName="opacity" values="0;1;0;0" keyTimes="0.00000;0.11111;0.22222;1.00000" calcMode="discrete" dur="540s" begin="0s" repeatCount="indefinite"/>

    <text x="350.0" y="42" text-anchor="middle" font-family="'Segoe UI', Verdana, sans-serif" font-size="26" font-weight="700" fill="#00C9A7">
      Data Scientist
    </text>
    <text x="350.0" y="66" text-anchor="middle" font-family="'Segoe UI', Verdana, sans-serif" font-size="13" fill="#8b98a5">
      Tech Stack &amp; Expertise Level
    </text>

    <text x="30" y="103" font-family="'Segoe UI', Verdana, sans-serif" font-size="15" fill="#e6edf3">Python</text>
    <rect x="190" y="90" width="430" height="14" rx="7" fill="#1c2733"/>
    <rect x="190" y="90" width="387" height="14" rx="7" fill="#00C9A7"/>
    <text x="634" y="103" font-family="'Segoe UI', Verdana, sans-serif" font-size="13" font-weight="600" fill="#00C9A7">90%</text>

    <text x="30" y="149" font-family="'Segoe UI', Verdana, sans-serif" font-size="15" fill="#e6edf3">Statistics</text>
    <rect x="190" y="136" width="430" height="14" rx="7" fill="#1c2733"/>
    <rect x="190" y="136" width="366" height="14" rx="7" fill="#FF512F"/>
    <text x="634" y="149" font-family="'Segoe UI', Verdana, sans-serif" font-size="13" font-weight="600" fill="#FF512F">85%</text>

    <text x="30" y="195" font-family="'Segoe UI', Verdana, sans-serif" font-size="15" fill="#e6edf3">Pandas / NumPy</text>
    <rect x="190" y="182" width="430" height="14" rx="7" fill="#1c2733"/>
    <rect x="190" y="182" width="387" height="14" rx="7" fill="#8E2DE2"/>
    <text x="634" y="195" font-family="'Segoe UI', Verdana, sans-serif" font-size="13" font-weight="600" fill="#8E2DE2">90%</text>

    <text x="30" y="241" font-family="'Segoe UI', Verdana, sans-serif" font-size="15" fill="#e6edf3">Scikit-learn</text>
    <rect x="190" y="228" width="430" height="14" rx="7" fill="#1c2733"/>
    <rect x="190" y="228" width="366" height="14" rx="7" fill="#26D0CE"/>
    <text x="634" y="241" font-family="'Segoe UI', Verdana, sans-serif" font-size="13" font-weight="600" fill="#26D0CE">85%</text>

    <text x="30" y="287" font-family="'Segoe UI', Verdana, sans-serif" font-size="15" fill="#e6edf3">SQL</text>
    <rect x="190" y="274" width="430" height="14" rx="7" fill="#1c2733"/>
    <rect x="190" y="274" width="344" height="14" rx="7" fill="#38EF7D"/>
    <text x="634" y="287" font-family="'Segoe UI', Verdana, sans-serif" font-size="13" font-weight="600" fill="#38EF7D">80%</text>

    <text x="350.0" y="348" text-anchor="middle" font-family="'Segoe UI', Verdana, sans-serif" font-size="11" fill="#5b6773">
      Role 2 of 9 &#8226; changes every 60s
    </text>
  </g>

  <g opacity="0">
    <animate attributeName="opacity" values="0;1;0;0" keyTimes="0.00000;0.22222;0.33333;1.00000" calcMode="discrete" dur="540s" begin="0s" repeatCount="indefinite"/>

    <text x="350.0" y="42" text-anchor="middle" font-family="'Segoe UI', Verdana, sans-serif" font-size="26" font-weight="700" fill="#00C9A7">
      Data Engineer
    </text>
    <text x="350.0" y="66" text-anchor="middle" font-family="'Segoe UI', Verdana, sans-serif" font-size="13" fill="#8b98a5">
      Tech Stack &amp; Expertise Level
    </text>

    <text x="30" y="103" font-family="'Segoe UI', Verdana, sans-serif" font-size="15" fill="#e6edf3">Python</text>
    <rect x="190" y="90" width="430" height="14" rx="7" fill="#1c2733"/>
    <rect x="190" y="90" width="344" height="14" rx="7" fill="#00C9A7"/>
    <text x="634" y="103" font-family="'Segoe UI', Verdana, sans-serif" font-size="13" font-weight="600" fill="#00C9A7">80%</text>

    <text x="30" y="149" font-family="'Segoe UI', Verdana, sans-serif" font-size="15" fill="#e6edf3">SQL</text>
    <rect x="190" y="136" width="430" height="14" rx="7" fill="#1c2733"/>
    <rect x="190" y="136" width="366" height="14" rx="7" fill="#FF512F"/>
    <text x="634" y="149" font-family="'Segoe UI', Verdana, sans-serif" font-size="13" font-weight="600" fill="#FF512F">85%</text>

    <text x="30" y="195" font-family="'Segoe UI', Verdana, sans-serif" font-size="15" fill="#e6edf3">Apache Spark</text>
    <rect x="190" y="182" width="430" height="14" rx="7" fill="#1c2733"/>
    <rect x="190" y="182" width="322" height="14" rx="7" fill="#8E2DE2"/>
    <text x="634" y="195" font-family="'Segoe UI', Verdana, sans-serif" font-size="13" font-weight="600" fill="#8E2DE2">75%</text>

    <text x="30" y="241" font-family="'Segoe UI', Verdana, sans-serif" font-size="15" fill="#e6edf3">Airflow</text>
    <rect x="190" y="228" width="430" height="14" rx="7" fill="#1c2733"/>
    <rect x="190" y="228" width="301" height="14" rx="7" fill="#26D0CE"/>
    <text x="634" y="241" font-family="'Segoe UI', Verdana, sans-serif" font-size="13" font-weight="600" fill="#26D0CE">70%</text>

    <text x="30" y="287" font-family="'Segoe UI', Verdana, sans-serif" font-size="15" fill="#e6edf3">Docker</text>
    <rect x="190" y="274" width="430" height="14" rx="7" fill="#1c2733"/>
    <rect x="190" y="274" width="322" height="14" rx="7" fill="#38EF7D"/>
    <text x="634" y="287" font-family="'Segoe UI', Verdana, sans-serif" font-size="13" font-weight="600" fill="#38EF7D">75%</text>

    <text x="350.0" y="348" text-anchor="middle" font-family="'Segoe UI', Verdana, sans-serif" font-size="11" fill="#5b6773">
      Role 3 of 9 &#8226; changes every 60s
    </text>
  </g>

  <g opacity="0">
    <animate attributeName="opacity" values="0;1;0;0" keyTimes="0.00000;0.33333;0.44444;1.00000" calcMode="discrete" dur="540s" begin="0s" repeatCount="indefinite"/>

    <text x="350.0" y="42" text-anchor="middle" font-family="'Segoe UI', Verdana, sans-serif" font-size="26" font-weight="700" fill="#00C9A7">
      AI / ML Engineer
    </text>
    <text x="350.0" y="66" text-anchor="middle" font-family="'Segoe UI', Verdana, sans-serif" font-size="13" fill="#8b98a5">
      Tech Stack &amp; Expertise Level
    </text>

    <text x="30" y="103" font-family="'Segoe UI', Verdana, sans-serif" font-size="15" fill="#e6edf3">Python</text>
    <rect x="190" y="90" width="430" height="14" rx="7" fill="#1c2733"/>
    <rect x="190" y="90" width="387" height="14" rx="7" fill="#00C9A7"/>
    <text x="634" y="103" font-family="'Segoe UI', Verdana, sans-serif" font-size="13" font-weight="600" fill="#00C9A7">90%</text>

    <text x="30" y="149" font-family="'Segoe UI', Verdana, sans-serif" font-size="15" fill="#e6edf3">TensorFlow</text>
    <rect x="190" y="136" width="430" height="14" rx="7" fill="#1c2733"/>
    <rect x="190" y="136" width="366" height="14" rx="7" fill="#FF512F"/>
    <text x="634" y="149" font-family="'Segoe UI', Verdana, sans-serif" font-size="13" font-weight="600" fill="#FF512F">85%</text>

    <text x="30" y="195" font-family="'Segoe UI', Verdana, sans-serif" font-size="15" fill="#e6edf3">PyTorch</text>
    <rect x="190" y="182" width="430" height="14" rx="7" fill="#1c2733"/>
    <rect x="190" y="182" width="366" height="14" rx="7" fill="#8E2DE2"/>
    <text x="634" y="195" font-family="'Segoe UI', Verdana, sans-serif" font-size="13" font-weight="600" fill="#8E2DE2">85%</text>

    <text x="30" y="241" font-family="'Segoe UI', Verdana, sans-serif" font-size="15" fill="#e6edf3">Scikit-learn</text>
    <rect x="190" y="228" width="430" height="14" rx="7" fill="#1c2733"/>
    <rect x="190" y="228" width="344" height="14" rx="7" fill="#26D0CE"/>
    <text x="634" y="241" font-family="'Segoe UI', Verdana, sans-serif" font-size="13" font-weight="600" fill="#26D0CE">80%</text>

    <text x="30" y="287" font-family="'Segoe UI', Verdana, sans-serif" font-size="15" fill="#e6edf3">Docker</text>
    <rect x="190" y="274" width="430" height="14" rx="7" fill="#1c2733"/>
    <rect x="190" y="274" width="322" height="14" rx="7" fill="#38EF7D"/>
    <text x="634" y="287" font-family="'Segoe UI', Verdana, sans-serif" font-size="13" font-weight="600" fill="#38EF7D">75%</text>

    <text x="350.0" y="348" text-anchor="middle" font-family="'Segoe UI', Verdana, sans-serif" font-size="11" fill="#5b6773">
      Role 4 of 9 &#8226; changes every 60s
    </text>
  </g>

  <g opacity="0">
    <animate attributeName="opacity" values="0;1;0;0" keyTimes="0.00000;0.44444;0.55556;1.00000" calcMode="discrete" dur="540s" begin="0s" repeatCount="indefinite"/>

    <text x="350.0" y="42" text-anchor="middle" font-family="'Segoe UI', Verdana, sans-serif" font-size="26" font-weight="700" fill="#00C9A7">
      ML Engineer
    </text>
    <text x="350.0" y="66" text-anchor="middle" font-family="'Segoe UI', Verdana, sans-serif" font-size="13" fill="#8b98a5">
      Tech Stack &amp; Expertise Level
    </text>

    <text x="30" y="103" font-family="'Segoe UI', Verdana, sans-serif" font-size="15" fill="#e6edf3">Python</text>
    <rect x="190" y="90" width="430" height="14" rx="7" fill="#1c2733"/>
    <rect x="190" y="90" width="366" height="14" rx="7" fill="#00C9A7"/>
    <text x="634" y="103" font-family="'Segoe UI', Verdana, sans-serif" font-size="13" font-weight="600" fill="#00C9A7">85%</text>

    <text x="30" y="149" font-family="'Segoe UI', Verdana, sans-serif" font-size="15" fill="#e6edf3">MLflow</text>
    <rect x="190" y="136" width="430" height="14" rx="7" fill="#1c2733"/>
    <rect x="190" y="136" width="322" height="14" rx="7" fill="#FF512F"/>
    <text x="634" y="149" font-family="'Segoe UI', Verdana, sans-serif" font-size="13" font-weight="600" fill="#FF512F">75%</text>

    <text x="30" y="195" font-family="'Segoe UI', Verdana, sans-serif" font-size="15" fill="#e6edf3">Docker</text>
    <rect x="190" y="182" width="430" height="14" rx="7" fill="#1c2733"/>
    <rect x="190" y="182" width="344" height="14" rx="7" fill="#8E2DE2"/>
    <text x="634" y="195" font-family="'Segoe UI', Verdana, sans-serif" font-size="13" font-weight="600" fill="#8E2DE2">80%</text>

    <text x="30" y="241" font-family="'Segoe UI', Verdana, sans-serif" font-size="15" fill="#e6edf3">Kubernetes</text>
    <rect x="190" y="228" width="430" height="14" rx="7" fill="#1c2733"/>
    <rect x="190" y="228" width="301" height="14" rx="7" fill="#26D0CE"/>
    <text x="634" y="241" font-family="'Segoe UI', Verdana, sans-serif" font-size="13" font-weight="600" fill="#26D0CE">70%</text>

    <text x="30" y="287" font-family="'Segoe UI', Verdana, sans-serif" font-size="15" fill="#e6edf3">Model Deployment</text>
    <rect x="190" y="274" width="430" height="14" rx="7" fill="#1c2733"/>
    <rect x="190" y="274" width="344" height="14" rx="7" fill="#38EF7D"/>
    <text x="634" y="287" font-family="'Segoe UI', Verdana, sans-serif" font-size="13" font-weight="600" fill="#38EF7D">80%</text>

    <text x="350.0" y="348" text-anchor="middle" font-family="'Segoe UI', Verdana, sans-serif" font-size="11" fill="#5b6773">
      Role 5 of 9 &#8226; changes every 60s
    </text>
  </g>

  <g opacity="0">
    <animate attributeName="opacity" values="0;1;0;0" keyTimes="0.00000;0.55556;0.66667;1.00000" calcMode="discrete" dur="540s" begin="0s" repeatCount="indefinite"/>

    <text x="350.0" y="42" text-anchor="middle" font-family="'Segoe UI', Verdana, sans-serif" font-size="26" font-weight="700" fill="#00C9A7">
      MLOps Engineer
    </text>
    <text x="350.0" y="66" text-anchor="middle" font-family="'Segoe UI', Verdana, sans-serif" font-size="13" fill="#8b98a5">
      Tech Stack &amp; Expertise Level
    </text>

    <text x="30" y="103" font-family="'Segoe UI', Verdana, sans-serif" font-size="15" fill="#e6edf3">Docker</text>
    <rect x="190" y="90" width="430" height="14" rx="7" fill="#1c2733"/>
    <rect x="190" y="90" width="366" height="14" rx="7" fill="#00C9A7"/>
    <text x="634" y="103" font-family="'Segoe UI', Verdana, sans-serif" font-size="13" font-weight="600" fill="#00C9A7">85%</text>

    <text x="30" y="149" font-family="'Segoe UI', Verdana, sans-serif" font-size="15" fill="#e6edf3">Kubernetes</text>
    <rect x="190" y="136" width="430" height="14" rx="7" fill="#1c2733"/>
    <rect x="190" y="136" width="344" height="14" rx="7" fill="#FF512F"/>
    <text x="634" y="149" font-family="'Segoe UI', Verdana, sans-serif" font-size="13" font-weight="600" fill="#FF512F">80%</text>

    <text x="30" y="195" font-family="'Segoe UI', Verdana, sans-serif" font-size="15" fill="#e6edf3">MLflow</text>
    <rect x="190" y="182" width="430" height="14" rx="7" fill="#1c2733"/>
    <rect x="190" y="182" width="344" height="14" rx="7" fill="#8E2DE2"/>
    <text x="634" y="195" font-family="'Segoe UI', Verdana, sans-serif" font-size="13" font-weight="600" fill="#8E2DE2">80%</text>

    <text x="30" y="241" font-family="'Segoe UI', Verdana, sans-serif" font-size="15" fill="#e6edf3">CI/CD Pipelines</text>
    <rect x="190" y="228" width="430" height="14" rx="7" fill="#1c2733"/>
    <rect x="190" y="228" width="322" height="14" rx="7" fill="#26D0CE"/>
    <text x="634" y="241" font-family="'Segoe UI', Verdana, sans-serif" font-size="13" font-weight="600" fill="#26D0CE">75%</text>

    <text x="30" y="287" font-family="'Segoe UI', Verdana, sans-serif" font-size="15" fill="#e6edf3">Cloud (AWS/GCP)</text>
    <rect x="190" y="274" width="430" height="14" rx="7" fill="#1c2733"/>
    <rect x="190" y="274" width="344" height="14" rx="7" fill="#38EF7D"/>
    <text x="634" y="287" font-family="'Segoe UI', Verdana, sans-serif" font-size="13" font-weight="600" fill="#38EF7D">80%</text>

    <text x="350.0" y="348" text-anchor="middle" font-family="'Segoe UI', Verdana, sans-serif" font-size="11" fill="#5b6773">
      Role 6 of 9 &#8226; changes every 60s
    </text>
  </g>

  <g opacity="0">
    <animate attributeName="opacity" values="0;1;0;0" keyTimes="0.00000;0.66667;0.77778;1.00000" calcMode="discrete" dur="540s" begin="0s" repeatCount="indefinite"/>

    <text x="350.0" y="42" text-anchor="middle" font-family="'Segoe UI', Verdana, sans-serif" font-size="26" font-weight="700" fill="#00C9A7">
      GenAI Engineer
    </text>
    <text x="350.0" y="66" text-anchor="middle" font-family="'Segoe UI', Verdana, sans-serif" font-size="13" fill="#8b98a5">
      Tech Stack &amp; Expertise Level
    </text>

    <text x="30" y="103" font-family="'Segoe UI', Verdana, sans-serif" font-size="15" fill="#e6edf3">Python</text>
    <rect x="190" y="90" width="430" height="14" rx="7" fill="#1c2733"/>
    <rect x="190" y="90" width="366" height="14" rx="7" fill="#00C9A7"/>
    <text x="634" y="103" font-family="'Segoe UI', Verdana, sans-serif" font-size="13" font-weight="600" fill="#00C9A7">85%</text>

    <text x="30" y="149" font-family="'Segoe UI', Verdana, sans-serif" font-size="15" fill="#e6edf3">LangChain</text>
    <rect x="190" y="136" width="430" height="14" rx="7" fill="#1c2733"/>
    <rect x="190" y="136" width="344" height="14" rx="7" fill="#FF512F"/>
    <text x="634" y="149" font-family="'Segoe UI', Verdana, sans-serif" font-size="13" font-weight="600" fill="#FF512F">80%</text>

    <text x="30" y="195" font-family="'Segoe UI', Verdana, sans-serif" font-size="15" fill="#e6edf3">Hugging Face</text>
    <rect x="190" y="182" width="430" height="14" rx="7" fill="#1c2733"/>
    <rect x="190" y="182" width="344" height="14" rx="7" fill="#8E2DE2"/>
    <text x="634" y="195" font-family="'Segoe UI', Verdana, sans-serif" font-size="13" font-weight="600" fill="#8E2DE2">80%</text>

    <text x="30" y="241" font-family="'Segoe UI', Verdana, sans-serif" font-size="15" fill="#e6edf3">OpenAI / LLM APIs</text>
    <rect x="190" y="228" width="430" height="14" rx="7" fill="#1c2733"/>
    <rect x="190" y="228" width="366" height="14" rx="7" fill="#26D0CE"/>
    <text x="634" y="241" font-family="'Segoe UI', Verdana, sans-serif" font-size="13" font-weight="600" fill="#26D0CE">85%</text>

    <text x="30" y="287" font-family="'Segoe UI', Verdana, sans-serif" font-size="15" fill="#e6edf3">Vector Databases</text>
    <rect x="190" y="274" width="430" height="14" rx="7" fill="#1c2733"/>
    <rect x="190" y="274" width="322" height="14" rx="7" fill="#38EF7D"/>
    <text x="634" y="287" font-family="'Segoe UI', Verdana, sans-serif" font-size="13" font-weight="600" fill="#38EF7D">75%</text>

    <text x="350.0" y="348" text-anchor="middle" font-family="'Segoe UI', Verdana, sans-serif" font-size="11" fill="#5b6773">
      Role 7 of 9 &#8226; changes every 60s
    </text>
  </g>

  <g opacity="0">
    <animate attributeName="opacity" values="0;1;0;0" keyTimes="0.00000;0.77778;0.88889;1.00000" calcMode="discrete" dur="540s" begin="0s" repeatCount="indefinite"/>

    <text x="350.0" y="42" text-anchor="middle" font-family="'Segoe UI', Verdana, sans-serif" font-size="26" font-weight="700" fill="#00C9A7">
      GenAI Cloud Engineer
    </text>
    <text x="350.0" y="66" text-anchor="middle" font-family="'Segoe UI', Verdana, sans-serif" font-size="13" fill="#8b98a5">
      Tech Stack &amp; Expertise Level
    </text>

    <text x="30" y="103" font-family="'Segoe UI', Verdana, sans-serif" font-size="15" fill="#e6edf3">AWS / Azure / GCP</text>
    <rect x="190" y="90" width="430" height="14" rx="7" fill="#1c2733"/>
    <rect x="190" y="90" width="366" height="14" rx="7" fill="#00C9A7"/>
    <text x="634" y="103" font-family="'Segoe UI', Verdana, sans-serif" font-size="13" font-weight="600" fill="#00C9A7">85%</text>

    <text x="30" y="149" font-family="'Segoe UI', Verdana, sans-serif" font-size="15" fill="#e6edf3">LangChain</text>
    <rect x="190" y="136" width="430" height="14" rx="7" fill="#1c2733"/>
    <rect x="190" y="136" width="322" height="14" rx="7" fill="#FF512F"/>
    <text x="634" y="149" font-family="'Segoe UI', Verdana, sans-serif" font-size="13" font-weight="600" fill="#FF512F">75%</text>

    <text x="30" y="195" font-family="'Segoe UI', Verdana, sans-serif" font-size="15" fill="#e6edf3">Docker</text>
    <rect x="190" y="182" width="430" height="14" rx="7" fill="#1c2733"/>
    <rect x="190" y="182" width="322" height="14" rx="7" fill="#8E2DE2"/>
    <text x="634" y="195" font-family="'Segoe UI', Verdana, sans-serif" font-size="13" font-weight="600" fill="#8E2DE2">75%</text>

    <text x="30" y="241" font-family="'Segoe UI', Verdana, sans-serif" font-size="15" fill="#e6edf3">Kubernetes</text>
    <rect x="190" y="228" width="430" height="14" rx="7" fill="#1c2733"/>
    <rect x="190" y="228" width="301" height="14" rx="7" fill="#26D0CE"/>
    <text x="634" y="241" font-family="'Segoe UI', Verdana, sans-serif" font-size="13" font-weight="600" fill="#26D0CE">70%</text>

    <text x="30" y="287" font-family="'Segoe UI', Verdana, sans-serif" font-size="15" fill="#e6edf3">Vector Databases</text>
    <rect x="190" y="274" width="430" height="14" rx="7" fill="#1c2733"/>
    <rect x="190" y="274" width="322" height="14" rx="7" fill="#38EF7D"/>
    <text x="634" y="287" font-family="'Segoe UI', Verdana, sans-serif" font-size="13" font-weight="600" fill="#38EF7D">75%</text>

    <text x="350.0" y="348" text-anchor="middle" font-family="'Segoe UI', Verdana, sans-serif" font-size="11" fill="#5b6773">
      Role 8 of 9 &#8226; changes every 60s
    </text>
  </g>

  <g opacity="0">
    <animate attributeName="opacity" values="0;1;0;0" keyTimes="0.00000;0.88889;1.00000;1.00000" calcMode="discrete" dur="540s" begin="0s" repeatCount="indefinite"/>

    <text x="350.0" y="42" text-anchor="middle" font-family="'Segoe UI', Verdana, sans-serif" font-size="26" font-weight="700" fill="#00C9A7">
      Business Analyst
    </text>
    <text x="350.0" y="66" text-anchor="middle" font-family="'Segoe UI', Verdana, sans-serif" font-size="13" fill="#8b98a5">
      Tech Stack &amp; Expertise Level
    </text>

    <text x="30" y="103" font-family="'Segoe UI', Verdana, sans-serif" font-size="15" fill="#e6edf3">SQL</text>
    <rect x="190" y="90" width="430" height="14" rx="7" fill="#1c2733"/>
    <rect x="190" y="90" width="366" height="14" rx="7" fill="#00C9A7"/>
    <text x="634" y="103" font-family="'Segoe UI', Verdana, sans-serif" font-size="13" font-weight="600" fill="#00C9A7">85%</text>

    <text x="30" y="149" font-family="'Segoe UI', Verdana, sans-serif" font-size="15" fill="#e6edf3">Advanced Excel</text>
    <rect x="190" y="136" width="430" height="14" rx="7" fill="#1c2733"/>
    <rect x="190" y="136" width="387" height="14" rx="7" fill="#FF512F"/>
    <text x="634" y="149" font-family="'Segoe UI', Verdana, sans-serif" font-size="13" font-weight="600" fill="#FF512F">90%</text>

    <text x="30" y="195" font-family="'Segoe UI', Verdana, sans-serif" font-size="15" fill="#e6edf3">Power BI</text>
    <rect x="190" y="182" width="430" height="14" rx="7" fill="#1c2733"/>
    <rect x="190" y="182" width="387" height="14" rx="7" fill="#8E2DE2"/>
    <text x="634" y="195" font-family="'Segoe UI', Verdana, sans-serif" font-size="13" font-weight="600" fill="#8E2DE2">90%</text>

    <text x="30" y="241" font-family="'Segoe UI', Verdana, sans-serif" font-size="15" fill="#e6edf3">Data Storytelling</text>
    <rect x="190" y="228" width="430" height="14" rx="7" fill="#1c2733"/>
    <rect x="190" y="228" width="366" height="14" rx="7" fill="#26D0CE"/>
    <text x="634" y="241" font-family="'Segoe UI', Verdana, sans-serif" font-size="13" font-weight="600" fill="#26D0CE">85%</text>

    <text x="30" y="287" font-family="'Segoe UI', Verdana, sans-serif" font-size="15" fill="#e6edf3">Stakeholder Communication</text>
    <rect x="190" y="274" width="430" height="14" rx="7" fill="#1c2733"/>
    <rect x="190" y="274" width="344" height="14" rx="7" fill="#38EF7D"/>
    <text x="634" y="287" font-family="'Segoe UI', Verdana, sans-serif" font-size="13" font-weight="600" fill="#38EF7D">80%</text>

    <text x="350.0" y="348" text-anchor="middle" font-family="'Segoe UI', Verdana, sans-serif" font-size="11" fill="#5b6773">
      Role 9 of 9 &#8226; changes every 60s
    </text>
  </g>
</svg>
